<svg xmlns="http://www.w3.org/2000/svg" width="40" height="40" viewBox="0 0 40 40">
    <rect x="1" y="3" width="10" height="6" rx="2" ry="2" fill="#FFF7B0" fill-opacity="0.65"/><rect x="13" y="3" width="9" height="6" rx="2" ry="2" fill="#DAD4F0" fill-opacity="0.55"/><rect x="24" y="3" width="12" height="6" rx="2" ry="2" fill="#CFE6FF" fill-opacity="0.6"/><rect x="2" y="12" width="12" height="7" rx="2" ry="2" fill="#F9C9D8" fill-opacity="0.6"/><rect x="16" y="12" width="10" height="7" rx="2" ry="2" fill="#E5F4D6" fill-opacity="0.5"/><rect x="28" y="12" width="10" height="7" rx="2" ry="2" fill="#FFE6C5" fill-opacity="0.6"/><rect x="1" y="22" width="8" height="6" rx="2" ry="2" fill="#EAD9FF" fill-opacity="0.6"/><rect x="11" y="22" width="10" height="6" rx="2" ry="2" fill="#CDECCF" fill-opacity="0.55"/><rect x="23" y="22" width="15" height="6" rx="2" ry="2" fill="#FFF7B0" fill-opacity="0.6"/><rect x="3" y="31" width="10" height="6" rx="2" ry="2" fill="#DAD4F0" fill-opacity="0.6"/><rect x="15" y="31" width="9" height="6" rx="2" ry="2" fill="#CFE6FF" fill-opacity="0.55"/><rect x="26" y="31" width="11" height="6" rx="2" ry="2" fill="#FFE6C5" fill-opacity="0.6"/>
</svg>